<?xml version="1.0" encoding="UTF-8"?>
<svg id="Layer_2" data-name="Layer 2" xmlns="http://www.w3.org/2000/svg" viewBox="0 0 486.08 485.75">
  <defs>
    <style>
      .cls-1 {
        fill: #476d70;
      }

      .cls-1, .cls-2 {
        stroke: #270f0c;
      }

      .cls-1, .cls-2, .cls-3, .cls-4 {
        stroke-miterlimit: 10;
      }

      .cls-2 {
        fill: #a34623;
      }

      .cls-3 {
        fill: #fff;
      }

      .cls-3, .cls-4 {
        stroke: #260e0c;
        stroke-width: .75px;
      }

      .cls-4 {
        fill: #260e0c;
      }
    </style>
  </defs>
  <g id="Layer_1-2" data-name="Layer 1">
    <g>
      <rect class="cls-4" x="56.36" y="56.36" width="373.03" height="373.03"/>
      <rect class="cls-3" x="56.36" y="56.36" width="373.03" height="373.03" transform="translate(-72.12 105.92) rotate(-21.5)"/>
      <polygon class="cls-2" points="484.78 348.05 398.01 382.23 35.16 224.47 .98 137.7 484.78 348.05"/>
      <polygon class="cls-1" points="398.01 382.23 311.24 416.41 69.34 311.24 35.16 224.47 398.01 382.23"/>
      <polygon class="cls-3" points="129.82 337.53 103.52 398.01 69.34 311.24 129.82 337.53"/>
      <polygon class="cls-3" points="190.29 363.83 137.7 484.78 103.52 398.01 129.82 337.53 190.29 363.83"/>
      <polygon class="cls-3" points="250.77 390.12 224.47 450.59 137.7 484.78 190.29 363.83 250.77 390.12"/>
      <polygon class="cls-3" points="311.24 416.41 224.47 450.59 250.77 390.12 311.24 416.41"/>
      <polygon class="cls-3" points="348.05 .98 382.23 87.75 303.35 269.17 242.88 242.88 348.05 .98"/>
      <polygon class="cls-3" points="382.23 87.75 416.41 174.52 363.83 295.46 303.35 269.17 382.23 87.75"/>
      <polygon class="cls-3" points="416.41 174.52 450.59 261.28 424.3 321.76 363.83 295.46 416.41 174.52"/>
      <polygon class="cls-3" points="450.59 261.28 484.78 348.05 424.3 321.76 450.59 261.28"/>
      <polygon class="cls-3" points="87.75 103.52 61.45 164 .98 137.7 87.75 103.52"/>
      <polygon class="cls-3" points="174.52 69.34 121.93 190.29 61.45 164 87.75 103.52 174.52 69.34"/>
      <polygon class="cls-3" points="261.28 35.16 182.4 216.58 121.93 190.29 174.52 69.34 261.28 35.16"/>
      <polygon class="cls-3" points="348.05 .98 242.88 242.88 182.4 216.58 261.28 35.16 348.05 .98"/>
    </g>
  </g>
</svg>