<?xml version="1.0" encoding="UTF-8"?>
<svg id="Layer_2" data-name="Layer 2" xmlns="http://www.w3.org/2000/svg" viewBox="0 0 959.59 207.21">
  <defs>
    <style>
      .cls-1, .cls-2 {
        fill: #260e0c;
      }

      .cls-3 {
        fill: #476d70;
      }

      .cls-3, .cls-4 {
        stroke: #270f0c;
      }

      .cls-3, .cls-4, .cls-5, .cls-2 {
        stroke-miterlimit: 10;
      }

      .cls-4 {
        fill: #a34623;
      }

      .cls-5 {
        fill: #fff;
      }

      .cls-5, .cls-2 {
        stroke: #260e0c;
        stroke-width: .75px;
      }
    </style>
  </defs>
  <g id="Layer_1-2" data-name="Layer 1">
    <g>
      <g>
        <rect class="cls-2" x="776.53" y="24.48" width="158.26" height="158.26"/>
        <rect class="cls-5" x="776.53" y="24.48" width="158.26" height="158.26" transform="translate(21.57 320.83) rotate(-21.5)"/>
        <polygon class="cls-4" points="958.28 148.22 921.47 162.72 767.53 95.8 753.03 58.98 958.28 148.22"/>
        <polygon class="cls-3" points="921.47 162.72 884.66 177.23 782.03 132.61 767.53 95.8 921.47 162.72"/>
        <polygon class="cls-5" points="807.69 143.76 796.54 169.42 782.03 132.61 807.69 143.76"/>
        <polygon class="cls-5" points="833.35 154.92 811.04 206.23 796.54 169.42 807.69 143.76 833.35 154.92"/>
        <polygon class="cls-5" points="859 166.07 847.85 191.73 811.04 206.23 833.35 154.92 859 166.07"/>
        <polygon class="cls-5" points="884.66 177.23 847.85 191.73 859 166.07 884.66 177.23"/>
        <polygon class="cls-5" points="900.27 .98 914.78 37.79 881.31 114.76 855.66 103.6 900.27 .98"/>
        <polygon class="cls-5" points="914.78 37.79 929.28 74.6 906.97 125.91 881.31 114.76 914.78 37.79"/>
        <polygon class="cls-5" points="929.28 74.6 943.78 111.41 932.62 137.07 906.97 125.91 929.28 74.6"/>
        <polygon class="cls-5" points="943.78 111.41 958.28 148.22 932.62 137.07 943.78 111.41"/>
        <polygon class="cls-5" points="789.84 44.48 778.69 70.14 753.03 58.98 789.84 44.48"/>
        <polygon class="cls-5" points="826.65 29.98 804.34 81.29 778.69 70.14 789.84 44.48 826.65 29.98"/>
        <polygon class="cls-5" points="863.46 15.48 830 92.45 804.34 81.29 826.65 29.98 863.46 15.48"/>
        <polygon class="cls-5" points="900.27 .98 855.66 103.6 830 92.45 863.46 15.48 900.27 .98"/>
      </g>
      <g>
        <rect class="cls-1" x="337.34" y="54.87" width="30.17" height="94.8"/>
        <rect class="cls-1" x="345.25" y="96.26" width="78.31" height="30.15" transform="translate(33.87 304.42) rotate(-45)"/>
        <rect class="cls-1" x="435.28" y="54.87" width="30.17" height="94.8"/>
        <rect class="cls-1" x="403.31" y="72.18" width="30.15" height="78.31" transform="translate(43.82 328.45) rotate(-45)"/>
        <polygon class="cls-1" points="503.82 80.09 503.82 149.66 473.65 149.66 473.65 110.25 503.82 80.09"/>
        <polygon class="cls-1" points="584.34 110.25 584.34 149.66 554.18 149.66 554.18 80.09 584.34 110.25"/>
        <polygon class="cls-1" points="584.34 110.25 563 131.55 554.18 122.72 529.02 97.52 503.82 122.72 494.99 131.55 473.65 110.25 507.68 76.22 507.64 76.18 528.98 54.89 529.02 54.89 550.36 76.18 550.31 76.22 554.18 80.09 584.34 110.25"/>
        <rect class="cls-1" x="592.54" y="54.87" width="30.17" height="94.8"/>
        <rect class="cls-1" x="592.54" y="119.52" width="78.31" height="30.15"/>
        <path class="cls-1" d="m0,58.37h36.49c12.39,0,22,4.45,28.82,13.36,6.09,8.04,9.14,18.33,9.14,30.89,0,9.69-1.8,18.46-5.39,26.29-6.34,13.84-17.24,20.76-32.69,20.76H0V58.37Zm34.06,80.73c4.09,0,7.45-.44,10.09-1.31,4.7-1.62,8.55-4.72,11.55-9.32,2.39-3.69,4.11-8.41,5.16-14.17.61-3.44.91-6.63.91-9.57,0-11.31-2.2-20.09-6.59-26.35-4.4-6.26-11.48-9.38-21.24-9.38H12.49v70.1h21.57Z"/>
        <path class="cls-1" d="m83.29,58.37h66.25v11.19h-54.19v27.72h50.09v10.56h-50.09v30.95h55.12v10.88h-67.18V58.37Z"/>
        <path class="cls-1" d="m223.33,65.02c6.31,6.09,9.81,13.01,10.5,20.76h-12.06c-1.34-5.88-4.02-10.54-8.03-13.98s-9.63-5.16-16.87-5.16c-8.83,0-15.96,3.16-21.39,9.49-5.43,6.32-8.15,16.01-8.15,29.08,0,10.7,2.45,19.37,7.36,26.03,4.9,6.66,12.22,9.98,21.95,9.98,8.95,0,15.77-3.5,20.45-10.5,2.48-3.69,4.33-8.53,5.56-14.54h12.06c-1.06,9.61-4.59,17.67-10.56,24.17-7.17,7.83-16.83,11.75-29,11.75-10.48,0-19.29-3.21-26.41-9.64-9.38-8.5-14.07-21.62-14.07-39.36,0-13.47,3.52-24.52,10.56-33.15,7.61-9.37,18.12-14.05,31.51-14.05,11.42,0,20.29,3.05,26.59,9.14Z"/>
        <path class="cls-1" d="m320.63,71.42c6.05,8.08,9.07,18.42,9.07,31.01,0,13.63-3.46,24.96-10.38,33.99-8.12,10.61-19.7,15.91-34.74,15.91-14.04,0-25.09-4.64-33.12-13.92-7.17-8.95-10.75-20.26-10.75-33.93,0-12.35,3.07-22.91,9.2-31.69,7.87-11.27,19.51-16.9,34.93-16.9s28.05,5.18,35.8,15.54Zm-10.9,58.19c4.87-7.82,7.3-16.8,7.3-26.96,0-10.74-2.8-19.39-8.42-25.94-5.61-6.55-13.29-9.83-23.03-9.83s-17.15,3.25-23.12,9.73c-5.97,6.49-8.95,16.06-8.95,28.7,0,10.12,2.56,18.65,7.68,25.6,5.12,6.95,13.41,10.42,24.89,10.42s18.78-3.91,23.65-11.72Z"/>
        <rect class="cls-1" x="678.3" y="54.87" width="30.17" height="94.8"/>
        <rect class="cls-1" x="678.3" y="119.52" width="78.31" height="30.15"/>
      </g>
    </g>
  </g>
</svg>